<svg xmlns="http://www.w3.org/2000/svg" xmlns:xlink="http://www.w3.org/1999/xlink" width="800.001" height="450.002" viewBox="0 0 2347.26 1320.34" shape-rendering="geometricPrecision" image-rendering="optimizeQuality" fill-rule="evenodd" xmlns:v="https://vecta.io/nano"><style><![CDATA[.c{fill:#07f}.d{fill:#ed553b}.e{fill-rule:nonzero}.f{stroke-miterlimit:22.9256}.g{fill:none}.h{stroke-linecap:round}.i{stroke-linejoin:round}.j{stroke-width:1.39}.k{stroke:#fe7654}.l{fill:#f6d55c}.m{fill:#1e1916}.n{fill:#ffc8bd}]]></style><defs><linearGradient id="A" gradientUnits="userSpaceOnUse" x1="6687.71" y1="2709.01" x2="6680.95" y2="2714.01"><stop offset="0" stop-color="#0e218a"/><stop offset="1" stop-color="#1f72d2"/></linearGradient><linearGradient id="B" gradientUnits="userSpaceOnUse" x1="7153.17" y1="3115.42" x2="7153.17" y2="3115.42"><stop offset="0" stop-color="#f6462e"/><stop offset="1" stop-color="#fb7d42"/></linearGradient><path id="C" d="M1938.71 230.45c21.88 2.96 37.22 23.1 34.26 44.98s-23.1 37.22-44.98 34.26-37.22-23.1-34.26-44.98 23.1-37.22 44.98-34.26z"/></defs><path d="M0 0h2347.26v1320.34H0z" fill="#ebf7ff"/><path d="M401.79 1070.39h1667.08v5.7H401.79z" fill="#1a1a1a" class="e"/><path d="M1198.73 781.49h64.87v288.9h-64.87zm92.39-31.07h64.87v319.96h-64.87zm92.38-34.4h64.87v354.37h-64.87zm92.39-38.1h64.87v392.47h-64.87zm92.39-42.21h64.87v434.67h-64.87zm92.39-46.74h64.87v481.41h-64.87zm92.39-51.76h64.87v533.18h-64.87zm92.39-57.33h64.87v590.51h-64.87zm91.66-54.23h64.87v644.74h-64.87z" fill="#cae2fd"/><g class="c"><path d="M2066.53 546.74l-3.19-7.62c-4 1.11-7.44 1.55-10.34 1.32s-5.78-1.36-8.65-3.36c-2.88-2.02-5.27-4.93-7.22-8.77l7.01-4.66c2.31 3.87 4.62 6.45 6.92 7.74 3.27 1.82 6.48 2.26 9.6 1.33l-10.01-23.92c-3.47.5-7.22.51-11.25.04-2.99-.33-5.63-1.42-7.95-3.27-2.32-1.86-4.11-4.3-5.38-7.35-2.27-5.41-2.18-10.6.23-15.57 1.61-3.32 4.84-6.3 9.67-8.92l-1.52-3.64 4.5-1.89 1.52 3.64c4.58-1.42 8.62-1.57 12.12-.47 4.47 1.39 8.05 4.36 10.76 8.91l-7.29 4.48c-1.71-2.83-3.62-4.76-5.72-5.77-2.09-1.02-4.48-1.26-7.18-.74l9.19 21.94c4.24-.62 7.08-.91 8.55-.9 2.8.05 5.25.51 7.37 1.39 2.12.86 4.01 2.16 5.68 3.88 1.65 1.72 2.99 3.78 4 6.18 2.21 5.27 2.37 10.36.5 15.3-1.87 4.92-5.42 8.61-10.62 11.1l3.23 7.71-4.5 1.89zm-27.92-66.69c-2.76 1.68-4.6 3.84-5.48 6.49-.9 2.63-.8 5.26.3 7.88 1.09 2.6 2.72 4.48 4.9 5.62s5.18 1.44 9.02.89l-8.74-20.87zm26.55 50.77c2.81-1.6 4.71-3.91 5.72-6.92 1-3 .83-6.13-.53-9.36-1.16-2.77-2.76-4.7-4.84-5.81-2.07-1.1-5.37-1.32-9.88-.66l9.53 22.76z" class="e"/><path d="M1415.52 284.3c5.67-8.19 25.75-27.46 32.28-21.07 3.43 3.36.54 12.13-1.8 17.95-2.48 6.17-6.44 12.73-10.75 18.42-3.28-4.52-2.59-6.56-8.36-10.74-4.4-3.18-7.72-2.91-11.37-4.57zm-22.82-17.28c14.18-14.09 35.52-16.59 48.9-8.23-15.33 8.86-13.99 6.62-29.04 23.66-8.34-10.75-4.2-11.35-19.86-15.43zm45.17 34.86c10.94-17.84 10.6-15.69 14.79-34.49 13.5 11.1 14.03 34.98 5.28 49.46-6.81-11.19-7.93-11.84-20.06-14.97zm-51.73-32.08c7.86 3.79 7.63-1.89 16.15 4.1 6.01 4.22 6.68 8.94 7.85 14.26 4.45.41 8.03-.75 13.42 2.4-2.96 6.07-13.41 18.8-18.08 24.79-8.08 10.38-12.42 5.52-13.08 1.53-.54-3.25.9-2.18.53-6.21-5.81 1.95-3.33 4.69-3.26 9.62 16.55 14.4 18.53-10.35 37.51-27.16 5.22 6.81 3.11 7.18 5.78 12.45.34.04 1.06-.25 1.02.02-.2 1.3 13.99-5.28 20.67 13.59 1.68 4.74-2.08-.34 2.28 4.44 15.7-19.77 13.03-43.04-5.26-61.05l1.27-5.3c-3.59-.32-2.25 3.23-8.36.31-21.44-10.25-40.06-10-58.44 12.19zm97.57 284.57c7.43.3 31.13-2.72 36.78-1.02 3.97 1.19 23.87 19.79 29.36 24.06-8.57 27.44-12.18 42.13-36.56 52.83-15.08 6.62-25.21 3.54-33.35-10.94-12.4-22.04-7.28-40 3.77-64.93zm26.2 43.9l-4.24 8.31-5.75-1.42c-.25-4.19.61-4.74 2.17-9.68l-9.11-3.47 2.29-7.04 9.48 2.67c1.99-5.11 1.67-5.95 4.12-8.29l5.86 1.4c.24 4.24-.62 4.63-2.12 9.71 5.32 1.92 9.63 1.74 8.4 6.7-1.54 6.15-5.63 2.85-11.1 1.11zm-2.9-23.56l-4.16 9.17-9.01-2.8-4.69 12.46 9.36 3.94-3.15 9.07 12.48 4.67 3.98-9.17 9.15 2.82 4.84-12.6-9.34-3.63 2.83-9.42-12.3-4.51zm46.05 3.63c-1.4-4.88-17.79-17.67-22.51-21.79-9.93-8.66-8.34-7.08-30.61-5.52-20.33 1.42-16.54-6.45-24.44 16.62-7.52 21.92-10.81 41.41 7.76 61.14 16.38 17.41 44.07 1.2 54.34-12.83 7.14-9.76 11.29-25.63 15.47-37.62z"/></g><path d="M974.35 317.84c-123.1-10.32-253.65-40.29-358.38-106.91C518.86 292.5 404.64 335.53 278.64 347c-2.33 137.4 11.23 280.22 64.26 407.49C399.78 891 494.45 990.72 621.48 1062.81 918.55 891.09 997.1 645.93 974.35 317.85zM620.47 999.39C490.5 883.06 381.08 729.9 356.3 425.1c129.14-33.52 204.32-85.04 265.81-141.11-61.88 78.2-132.75 120.86-197.14 161.49 18.75 350.06 107.84 452.16 195.5 553.91z" fill="#cae2fd"/><path d="M1267.1 528.68c-2-2.66-1.43-6.37 1.24-8.36 2.66-2 6.37-1.43 8.36 1.24 2 2.66 1.43 6.37-1.24 8.36-2.66 2-6.46 1.43-8.36-1.24z" class="c e"/><path d="M514.14 603.47l-27.94-65.2 70.42 8.37z" class="l"/><g class="e"><path d="M512.72 589.97l-.47-1.14-28.42-66.34 1.24.09 71.66 8.55-44.01 58.83zm-26.61-65.76l26.99 62.91 40.96-54.83-67.95-8.08z" class="m"/><path d="M619.61 335.19c-2-2.66-1.43-6.37 1.24-8.36 2.66-2 6.37-1.43 8.36 1.24 2 2.66 1.43 6.37-1.24 8.36-2.66 2-6.37 1.42-8.36-1.24z" class="c"/><path d="M688.99 208.41c-1.52-2.09-1.14-4.94.95-6.46s4.94-1.14 6.46.95 1.04 4.94-.95 6.46-4.94 1.04-6.46-.95z" fill="url(#A)"/><path d="M1191.83 669.81c-1.52-2.09-1.14-4.94.95-6.46s4.94-1.14 6.46.95 1.14 4.94-.95 6.46-4.94 1.04-6.46-.95zM382.4 429.18c-.95-1.24-.66-2.95.57-3.9 1.24-.95 2.95-.66 3.9.57.95 1.24.66 2.95-.57 3.9-1.33.85-3.04.66-3.9-.57z" class="c"/><path d="M1205.23 584.37c-.95-1.24-.66-2.95.57-3.9 1.24-.85 2.95-.67 3.8.57.95 1.24.66 2.95-.57 3.9-1.24.85-2.95.66-3.8-.57z" fill="url(#B)"/><path d="M802.08 270.66c-3.04-4.09-2.19-9.98 1.9-13.02s9.98-2.19 13.02 1.9 2.19 9.98-1.9 13.02c-4.09 3.14-9.89 2.18-13.02-1.9zM385.63 528.49c-1.81-2.47-1.33-5.99 1.14-7.79 2.47-1.81 5.99-1.33 7.79 1.14 1.81 2.47 1.33 5.99-1.14 7.79s-5.89 1.33-7.79-1.14z" class="d"/><g class="m"><path d="M1172.46 1070.39h-10.74l-3.42-8.08-1.99-4.56-70.14-165.84-11.12-25.94-6.65-15.88-.38-.75-1.14-2.67-.38-1.04h10.74l.47 1.04 1.14 2.67.29.75 6.75 15.88 11.02 25.94 55.5 131.15 17.58 41.53zm-154.62-224.76l-.38 1.04-1.14 2.67-.38.75-6.66 15.88-11.02 25.94-75.65 178.48h-10.74l75.56-178.48 11.02-25.94 6.75-15.88.28-.75 1.15-2.67.47-1.04zm18.25 0h10.74v224.76h-10.74z"/><path d="M956.26 846.67h170.4V892h-170.4z"/></g><path d="M859.22 641.49c-.19-7.89 6.27-14.92 14.54-15.59 8.27-.66 15.11 5.13 15.4 13.02.28 7.89-6.27 14.92-14.54 15.59-8.27.66-15.2-5.13-15.4-13.02z" class="c"/><path d="M748.98 1173.69c19.46 17.82 107.11 42.34 107.11 42.34s17.88 16.3 20.97 22.87c3.09 6.58 14.12 11.81 21.97 6.73 7.85-5.09 6.45-14.07 6.45-14.07s6.12-1.07 8.7-6.69c0 0 13.1-3.74 15.86-16.68 2.76-12.93-2.36-35.83-21.75-57.04-16.92-18.51-80.05-46.37-114.87-62.22l-44.44 84.75z" class="n"/></g><path d="M913.56 1224.21c4.9-12.07 2.53-25.68-3.46-35.31-5.99-9.64-15.59-15.83-15.59-15.83" stroke-width="1.91" class="f g h i k"/><g class="e"><path d="M650.61 764.25c-3.99-1.5-12.46 4.49-15.46 7.97-2.99 3.49-8.47 5.98-8.47 5.98s-35.4-5.98-60.83 20.94c-25.42 26.92-79.77 150.07-87.75 166.52l-51.25 104.71 189.35.96c24.49 40.27 67.12 64.03 89.74 77.31l36.4 22.93c17.95 10.97 35.4 18.95 35.4 18.95s29.91-12.96 40.88-37.39 9.47-48.36 9.47-48.36l-55.34-33.4 70.3-105.2c7.98-10.97-66.81-42.88-69.8-44.37-2.99-1.5-58.33 89.24-58.33 89.24l-2.99-10.47s32.91-62.82 39.88-97.22c6.98-34.4-12.96-66.31-25.92-78.28-5.27-4.86-11.47-9.97-19.61-16.12-3.82-12.13-12.3-24.76-12.3-24.76l-43.38-19.95z" fill="#636694"/><path d="M712.76 628.8c3.48-.22 5.82-4.16 11.8-7.65s12.5-1.83 15.46.33c4.32 3.16 3.49 7.15 4.65 9.64s4.65 1.5 8.31 1.66 12.46 4.82 12.3 13.96c-.17 9.14-3.82 14.79-9.14 19.77-5.32 4.99-6.98 7.31-5.32 10.14 1.66 2.82 11.3 14.96 4.99 22.1-6.31 7.15-17.62 6.31-17.62 6.31l-65.32 22.6s-7.97 4.32-13.79.33-1.99-11.14-5.82-15.62c-2.07-2.43-7.5-.16-14.79 1.33-12.96 2.66-23.1-8.14-18.61-21.61 4.49-13.46 15.29-10.3 18.61-15.79 1.58-2.61-3.16-10.97-.66-18.78 2.49-7.81 9.14-13.46 17.45-12.63 7.12.71 12.46 2.32 15.95-1s-2.66-10.3 1.66-18.78c4.32-8.47 16.12-13.46 24.6-8.64 8.47 4.81 9.97 12.62 15.29 12.29z" fill="#444669"/><path d="M683.35 688.8s-1.66-11.97-14.62-11.97-10.97 19.61-2.66 24.26 10.64 4.99 10.64 4.99-9.64 22.93-16.95 37.56c-7.31 14.62-12.63 23.93-12.63 23.93s13.3 19.61 20.94 28.92c7.65 9.31 16.62 17.12 16.62 17.12s4.65-4.32 8.14-12.3c0 0 2.49-9.47 10.8-27.75s20.27-42.21 20.27-42.21 15.62-1.99 20.94-22.6 1.05-36.66-1.66-45.87c-4.15-14.12-14.46-16.29-14.46-16.29s-7.81 7.31-23.27-.33c0 0-8.14 3.82-9.47 10.64-1.33 6.81 1.66 8.47-2.82 18.28-4.49 9.81-6.81 16.12-6.81 16.12l-3.01-2.48z" class="n"/><path d="M708.78 678.56c-1.16 0-1.75-.86-1.75-2.56s.59-2.56 1.75-2.56 1.75.86 1.75 2.56-.59 2.56-1.75 2.56zm30.08-.5c-1.16 0-1.75-.86-1.75-2.56s.59-2.56 1.75-2.56 1.75.86 1.75 2.56-.59 2.56-1.75 2.56z" fill="#303336"/></g><g class="f g h i"><path d="M701.63 667.02c5.49-4.32 12.8-2.66 15.29-1.33m15.12-.33c4.16-2.16 9.64-2.16 12.46 0" stroke="#292f44" stroke-width="2.78"/><path d="M725.89 670.18s5.57 7.7 7.98 11.64c1.83 2.99 3.99 6.81 1.99 8.64-1.99 1.83-9.47 1.66-9.47 1.66" class="j k"/><path d="M711.27 698.93c2.66 1 10.47 2.66 15.96 2.33s10.3-3.16 10.3-3.16" stroke="#ed553b" stroke-width="2.08"/></g><path d="M702.91 693.01c-2.59-.02-3.89-1.96-3.85-5.75s1.37-5.7 3.95-5.68c2.59.02 3.89 1.96 3.85 5.75s-1.37 5.71-3.95 5.68zm40.38-.66c-2.59-.02-3.89-1.96-3.85-5.75s1.37-5.7 3.95-5.68c2.59.02 3.89 1.96 3.85 5.75-.03 3.79-1.37 5.7-3.95 5.68z" fill="#fe9074" class="e"/><path d="M667.73 686.47c3.49 1.83 9.14 7.48 10.47 9.31m45.7 35.56c-8.14 1.83-22.93-2.49-29.58-7.81" class="f g h i j k"/><path d="M772.1 927.11l15.95-24.6s-8.64-17.62.66-34.57c9.31-16.95 25.92-40.22 32.91-39.88 6.98.33 14.62 6.31 10.64 14.96-3.99 8.64-13.3 22.6-15.95 27.92-2.66 5.32-3.32 9.31-1.33 9.64s16.95-21.94 24.93-32.24 20.61-22.93 25.6-26.92 11.64-6.98 16.95-2.66c5.32 4.32 4.65 11.64-1 17.95 0 0 8.97-9.64 13.63-9.97 4.65-.33 14.29 2.99 13.3 10.3-1 7.31-14.96 21.94-14.96 21.94s9.64-8.97 14.62-6.98c4.99 1.99 9.64 5.98 6.31 13.3-3.32 7.31-23.6 30.25-30.58 37.23s-45.54 60.83-45.54 60.83-29.58 8.64-48.19-5.65c-18.62-14.3-17.95-30.59-17.95-30.59z" class="e n"/><g class="f g h i j k"><path d="M881.45 836.7l-25.92 31.25m37.89-8.98c-5.65 6.31-19.28 23.27-19.28 23.27"/><path d="M845.55 862.3c3.66 1.66 13.96 7.98 20.61 12.63s14.62 14.96 14.62 14.96m-65.81-9.31c8.64 4.99 22.93 13.96 21.6 31.25-1.13 14.71-11.96 22.93-11.96 22.93"/></g><g stroke="#292f44" class="f g h i j"><path d="M705.95 1148.65c-44.87-24.43-85.75-56.34-105.7-107.19-19.94-50.86-38.89-146.58-43.87-176.49m71.13-85.6c2.49 7.31 23.6 37.72 25.92 41.38l26.59-9.31"/><path d="M688.67 810.94l10.97 15.12s5.49-8.47 6.15-16.45"/><path d="M599.59 807.79c11.64-1.33 50.19-3.99 68.8 37.89s43.54 154.89 43.54 154.89m38.56-41.55c4.65 15.62 23.93 43.21 66.48 40.55m-100.8-128.88c-2.99 24.68-20.19 60.41-20.19 60.41m18.95 79.94l9.97 29.08 47.86 31.25m-29.25 98.05c16.62-4.65 51.19-34.23 51.52-80.77"/></g><g class="e"><path d="M766.75 433.08h549.31V850.1H766.75z" fill="#fff"/><path d="M1317.49 851.52H765.33V431.65h552.16v419.87zm-549.31-2.85h546.46V434.5H768.18v414.17z" class="d"/><path d="M1332.03 851.52v12.17a2.15 2.15 0 0 1-2.19 2.19H753.16a2.21 2.21 0 0 1-2.19-2.19v-12.17a2.15 2.15 0 0 1 2.19-2.19l576.68.01c1.14 0 2.19 1.04 2.19 2.18z" fill="#fff"/><path d="M1329.75 867.39H753.07a3.61 3.61 0 0 1-3.61-3.61v-12.17a3.61 3.61 0 0 1 3.61-3.61h576.68a3.61 3.61 0 0 1 3.61 3.61v12.17c.1 1.9-1.52 3.61-3.61 3.61zm-576.68-16.64a.82.82 0 0 0-.76.76v12.17a.82.82 0 0 0 .76.76h576.68c.47 0 .76-.38.76-.76v-12.17c0-.47-.38-.76-.76-.76H753.07z" class="d"/><path d="M754.97 441.34h572.88a4.06 4.06 0 0 0 4.09-4.09v-8.36a4.06 4.06 0 0 0-4.09-4.09H754.97a4.06 4.06 0 0 0-4.09 4.09v8.36c0 2.28 1.9 4.09 4.09 4.09z" fill="#fff"/><path d="M1327.94 442.77H755.06c-3.04 0-5.51-2.47-5.51-5.51v-8.36c0-3.04 2.47-5.51 5.51-5.51h572.88c3.04 0 5.51 2.47 5.51 5.51v8.36c0 3.04-2.47 5.51-5.51 5.51zm-572.98-16.54c-1.52 0-2.66 1.24-2.66 2.66v8.36c0 1.52 1.24 2.66 2.66 2.66h572.88c1.52 0 2.66-1.24 2.66-2.66v-8.36c0-1.52-1.24-2.66-2.66-2.66H754.96zm54.46 368.84h46.47v21.95h-46.47z" class="d"/><path d="M888.49 734.15h46.47v82.78h-46.47z" class="c"/><path d="M976.59 760.76h46.47v56.17h-46.47z" class="d"/><path d="M1064.69 688.34h46.47v128.58h-46.47z" class="c"/><path d="M1152.89 721.89h46.47v95.04h-46.47z" class="d"/><path d="M1240.98 680.07h46.47v136.85h-46.47z" class="c"/><path d="M1259.84 530.57l-103.63 61.59-90.95-32.4-111.09 91.42-81.55-14.44-104.44 70.13v6.37l106.15-70.71 81.16 14.35 110.72-91.23 90.57 32.31 102.76-61.3v.01l1.79-1.08 54.45-32.47v-.04l50.07-29.9 78.01 17.8 111.73-83.17 86.27 35.67 158.71-84.36.28-5.62-159.27 84.33-86.64-35.77-112.09 83.33-78.38-17.91-104.63 63.01z" class="d"/><path d="M1541.29 405.36c.09-7.48 6.4-13.73 14.08-13.9 7.68-.18 13.85 5.67 13.77 13.06-.09 7.48-6.31 13.64-13.99 13.9-7.68.27-13.86-5.58-13.86-13.06zm-112.05 82.5c.1-7.66 6.61-14.09 14.56-14.34 7.86-.26 14.23 5.6 14.12 13.26-.1 7.66-6.61 14.09-14.56 14.34-7.96.35-14.32-5.6-14.12-13.26zm199.13-48c-.01-7.39 6.22-13.64 13.71-13.83 7.5-.28 13.58 5.57 13.59 12.96s-6.12 13.65-13.71 13.92c-7.5.28-13.58-5.56-13.58-13.05z" class="c"/></g><path d="M1945.78 175.27c-72.21 21.96-136.15 76.82-190.24 170.92l27.36 43.91c100.5.45 185.05-22.95 245.5-82.4 22.81-34.62 41.78-70.38 37.9-112.99-39.87-21.9-82.39-27.71-120.52-19.44z" class="l"/><path d="M2028.4 307.71c22.81-34.62 41.78-70.38 37.9-112.99-39.87-21.9-82.39-27.71-120.52-19.44 38.24 36.3 66.96 79.57 82.62 132.43z" class="d"/><path d="M1745.18 353.67l10.36-7.47 27.36 43.91-9.74 6.37z" fill="#303145"/><path d="M1770.75 392.8l-23.51-35.97-46.81 52.23z" class="l"/><path d="M1765.54 384.94l-12.54-19.2-23.82 26.96z" class="d"/><use xlink:href="#C" stroke="#2b2a29" stroke-width="21.88" class="f g"/><use xlink:href="#C" fill="#b8e5f0"/><path d="M1812.37 265.5c-14.29 15.95-27.13 33.22-38.89 51.47-19.35-11.18-41.82-11.99-64.62-11.75 31.73-19.87 65.7-34.39 103.51-39.72zm72.78 115.19c-21.88 4.1-43.54 7.07-64.89 8.42 3.11 20.74-4.17 39.15-13.23 57.16 30.41-17.7 56.37-39.64 78.12-65.58z" class="d"/><g class="e"><path d="M797.54 528.68h185.03v5.89H797.54zm0-20.81h58.92v5.89h-58.92zm84.4 0h41.25v5.89h-41.25zm-84.4-20.81h123.55v5.89H797.54zm140.09 0h61.01v5.89h-61.01z" class="m"/><path d="M1051.39 563.85c-.28-7.7 5.89-14.45 13.78-15.01 7.89-.57 14.54 5.13 14.83 12.73.28 7.7-5.8 14.35-13.68 15.01-7.89.67-14.54-5.04-14.92-12.73zm-111.1 90.56c-.28-7.89 6.08-14.83 14.26-15.49 8.08-.66 14.92 5.04 15.2 12.92.28 7.89-6.08 14.83-14.26 15.49-8.17.76-15.02-5.03-15.2-12.92zm202.43-59.49c-.38-7.6 5.7-14.35 13.4-14.92 7.7-.66 14.26 5.04 14.64 12.64s-5.61 14.35-13.4 15.02c-7.7.66-14.26-5.04-14.64-12.73zm172.11 13.69l-141.04 56.64-86.77-46.28-126.01 74.6-79.17-26.71-113.66 53.41v5.9l114.42-53.32 78.88 26.71 125.45-74.51 86.58 46.19 141.32-57.12z" class="c"/><path d="M1072.39 620.96c.85-7.7 8.17-13.59 16.25-13.02s13.88 7.32 12.92 15.01c-.85 7.7-8.08 13.59-16.16 13.02-8.07-.47-13.87-7.22-13.02-15.01zm-125.83 73.75c.95-7.89 8.46-13.88 16.73-13.31s14.16 7.32 13.21 15.2c-.95 7.89-8.36 13.88-16.63 13.31-8.27-.47-14.26-7.32-13.31-15.2zm-78.88-25.19c1.05-7.89 8.65-13.88 16.92-13.3 8.36.57 14.26 7.41 13.3 15.3-.95 7.89-8.55 13.88-16.92 13.4-8.26-.57-14.25-7.51-13.3-15.4zm292.05-3.51c.85-7.7 7.99-13.49 15.97-13.02 7.99.57 13.69 7.22 12.83 14.92-.85 7.7-7.98 13.49-15.87 13.02-7.98-.47-13.78-7.13-12.92-14.92z" class="d"/><path d="M1351.25 471.45c.19-7.66 6.79-14.17 14.84-14.42s14.41 5.7 14.3 13.36c-.1 7.66-6.79 14.17-14.84 14.42s-14.5-5.7-14.3-13.36z" class="c"/></g></svg>